HIERARCHY
ROOT Hips
{
  OFFSET 126.96 91.9987 35.2002
  CHANNELS 6 Xposition Yposition Zposition Zrotation Xrotation Yrotation
  JOINT RightUpLeg
  {
    OFFSET -9.21262 -1.62705 0.0892923
    CHANNELS 3 Zrotation Xrotation Yrotation
    JOINT RightLeg
    {
      OFFSET 0.0960154 -41.8606 0.153467
      CHANNELS 3 Zrotation Xrotation Yrotation
      JOINT RightFoot
      {
        OFFSET 1.33859 -39.7491 3.70458
        CHANNELS 3 Zrotation Xrotation Yrotation
        End Site
        {
          OFFSET 0 -7.69 17.5
        }
      }
    }
  }
  JOINT LeftUpLeg
  {
    OFFSET 9.28909 -1.62806 0.0108209
    CHANNELS 3 Zrotation Xrotation Yrotation
    JOINT LeftLeg
    {
      OFFSET 0.0929201 -41.8886 0.0218006
      CHANNELS 3 Zrotation Xrotation Yrotation
      JOINT LeftFoot
      {
        OFFSET -1.57781 -41.3397 -3.31563
        CHANNELS 3 Zrotation Xrotation Yrotation
        End Site
        {
          OFFSET 0 -7.69 17.5
        }
      }
    }
  }
  JOINT Spine
  {
    OFFSET 0.0128959 14.3037 0.0259321
    CHANNELS 3 Zrotation Xrotation Yrotation
    JOINT Spine1
    {
      OFFSET 0.0143034 9.71252 0.015398
      CHANNELS 3 Zrotation Xrotation Yrotation
      JOINT Spine2
      {
        OFFSET 0.0468817 10.117 -0.0314137
        CHANNELS 3 Zrotation Xrotation Yrotation
        JOINT Spine3
        {
          OFFSET 0.0102655 9.71178 0.00221616
          CHANNELS 3 Zrotation Xrotation Yrotation
          JOINT Neck
          {
            OFFSET -0.0402596 10.3794 0.0231037
            CHANNELS 3 Zrotation Xrotation Yrotation
            JOINT Head
            {
              OFFSET -0.03453 9.49168 0.0708427
              CHANNELS 3 Zrotation Xrotation Yrotation
              End Site
              {
                OFFSET 0 15.95 0
              }
            }
          }
          JOINT RightShoulder
          {
            OFFSET -3.17991 6.93495 0.0309862
            CHANNELS 3 Zrotation Xrotation Yrotation
            JOINT RightArm
            {
              OFFSET -12.8253 0.0342167 0.035901
              CHANNELS 3 Zrotation Xrotation Yrotation
              JOINT RightForeArm
              {
                OFFSET -26.4423 -0.000685918 0.00421057
                CHANNELS 3 Zrotation Xrotation Yrotation
                JOINT RightHand
                {
                  OFFSET -25.9842 -0.0662606 -0.0268032
                  CHANNELS 3 Zrotation Xrotation Yrotation
                  JOINT RightHandThumb1
                  {
                    OFFSET -2.48905 0.190105 3.12053
                    CHANNELS 3 Zrotation Xrotation Yrotation
                    JOINT RightHandThumb2
                    {
                      OFFSET -3.68274 0 0
                      CHANNELS 3 Zrotation Xrotation Yrotation
                      JOINT RightHandThumb3
                      {
                        OFFSET -2.55832 0 0
                        CHANNELS 3 Zrotation Xrotation Yrotation
                        End Site
                        {
                          OFFSET -2.194 0 0
                        }
                      }
                    }
                  }
                  JOINT RightInHandIndex
                  {
                    OFFSET -3.22368 0.508421 1.97842
                    CHANNELS 3 Zrotation Xrotation Yrotation
                    JOINT RightHandIndex1
                    {
                      OFFSET -5.21684 -0.091368 0.999158
                      CHANNELS 3 Zrotation Xrotation Yrotation
                      JOINT RightHandIndex2
                      {
                        OFFSET -3.61937 0 0
                        CHANNELS 3 Zrotation Xrotation Yrotation
                        JOINT RightHandIndex3
                        {
                          OFFSET -2.0521 0 0
                          CHANNELS 3 Zrotation Xrotation Yrotation
                          End Site
                          {
                            OFFSET -1.805 0 0
                          }
                        }
                      }
                    }
                  }
                  JOINT RightInHandMiddle
                  {
                    OFFSET -3.38211 0.517263 0.756737
                    CHANNELS 3 Zrotation Xrotation Yrotation
                    JOINT RightHandMiddle1
                    {
                      OFFSET -5.17411 -0.084 0.313895
                      CHANNELS 3 Zrotation Xrotation Yrotation
                      JOINT RightHandMiddle2
                      {
                        OFFSET -3.94947 0 0
                        CHANNELS 3 Zrotation Xrotation Yrotation
                        JOINT RightHandMiddle3
                        {
                          OFFSET -2.47579 0 0
                          CHANNELS 3 Zrotation Xrotation Yrotation
                          End Site
                          {
                            OFFSET -1.975 0 0
                          }
                        }
                      }
                    }
                  }
                  JOINT RightInHandRing
                  {
                    OFFSET -3.36516 0.537895 -0.128947
                    CHANNELS 3 Zrotation Xrotation Yrotation
                    JOINT RightHandRing1
                    {
                      OFFSET -4.63474 -0.022105 -0.478947
                      CHANNELS 3 Zrotation Xrotation Yrotation
                      JOINT RightHandRing2
                      {
                        OFFSET -3.44238 0 0
                        CHANNELS 3 Zrotation Xrotation Yrotation
                        JOINT RightHandRing3
                        {
                          OFFSET -2.3881 0 0
                          CHANNELS 3 Zrotation Xrotation Yrotation
                          End Site
                          {
                            OFFSET -1.857 0 0
                          }
                        }
                      }
                    }
                  }
                  JOINT RightInHandPinky
                  {
                    OFFSET -3.16105 0.469368 -1.20179
                    CHANNELS 3 Zrotation Xrotation Yrotation
                    JOINT RightHandPinky1
                    {
                      OFFSET -4.14105 -0.022105 -1.09053
                      CHANNELS 3 Zrotation Xrotation Yrotation
                      JOINT RightHandPinky2
                      {
                        OFFSET -2.75653 0 0
                        CHANNELS 3 Zrotation Xrotation Yrotation
                        JOINT RightHandPinky3
                        {
                          OFFSET -1.74189 0 0
                          CHANNELS 3 Zrotation Xrotation Yrotation
                          End Site
                          {
                            OFFSET -1.645 0 0
                          }
                        }
                      }
                    }
                  }
                }
              }
            }
          }
          JOINT LeftShoulder
          {
            OFFSET 3.21113 6.90952 -0.0469957
            CHANNELS 3 Zrotation Xrotation Yrotation
            JOINT LeftArm
            {
              OFFSET 12.7919 -0.0331125 -0.0859637
              CHANNELS 3 Zrotation Xrotation Yrotation
              JOINT LeftForeArm
              {
                OFFSET 26.4755 -0.0026531 -0.0242133
                CHANNELS 3 Zrotation Xrotation Yrotation
                JOINT LeftHand
                {
                  OFFSET 25.9936 -0.03295 -0.105102
                  CHANNELS 3 Zrotation Xrotation Yrotation
                  JOINT LeftHandThumb1
                  {
                    OFFSET 2.48905 0.190105 3.12053
                    CHANNELS 3 Zrotation Xrotation Yrotation
                    JOINT LeftHandThumb2
                    {
                      OFFSET 3.68274 0 0
                      CHANNELS 3 Zrotation Xrotation Yrotation
                      JOINT LeftHandThumb3
                      {
                        OFFSET 2.55832 0 0
                        CHANNELS 3 Zrotation Xrotation Yrotation
                        End Site
                        {
                          OFFSET 2.194 0 0
                        }
                      }
                    }
                  }
                  JOINT LeftInHandIndex
                  {
                    OFFSET 3.22368 0.508421 1.97842
                    CHANNELS 3 Zrotation Xrotation Yrotation
                    JOINT LeftHandIndex1
                    {
                      OFFSET 5.21684 -0.091368 0.999158
                      CHANNELS 3 Zrotation Xrotation Yrotation
                      JOINT LeftHandIndex2
                      {
                        OFFSET 3.61937 0 0
                        CHANNELS 3 Zrotation Xrotation Yrotation
                        JOINT LeftHandIndex3
                        {
                          OFFSET 2.0521 0 0
                          CHANNELS 3 Zrotation Xrotation Yrotation
                          End Site
                          {
                            OFFSET 1.805 0 0
                          }
                        }
                      }
                    }
                  }
                  JOINT LeftInHandMiddle
                  {
                    OFFSET 3.38211 0.517263 0.756737
                    CHANNELS 3 Zrotation Xrotation Yrotation
                    JOINT LeftHandMiddle1
                    {
                      OFFSET 5.17411 -0.084 0.313895
                      CHANNELS 3 Zrotation Xrotation Yrotation
                      JOINT LeftHandMiddle2
                      {
                        OFFSET 3.94947 0 0
                        CHANNELS 3 Zrotation Xrotation Yrotation
                        JOINT LeftHandMiddle3
                        {
                          OFFSET 2.47579 0 0
                          CHANNELS 3 Zrotation Xrotation Yrotation
                          End Site
                          {
                            OFFSET 1.975 0 0
                          }
                        }
                      }
                    }
                  }
                  JOINT LeftInHandRing
                  {
                    OFFSET 3.36516 0.537895 -0.128947
                    CHANNELS 3 Zrotation Xrotation Yrotation
                    JOINT LeftHandRing1
                    {
                      OFFSET 4.63474 -0.022105 -0.478947
                      CHANNELS 3 Zrotation Xrotation Yrotation
                      JOINT LeftHandRing2
                      {
                        OFFSET 3.44238 0 0
                        CHANNELS 3 Zrotation Xrotation Yrotation
                        JOINT LeftHandRing3
                        {
                          OFFSET 2.3881 0 0
                          CHANNELS 3 Zrotation Xrotation Yrotation
                          End Site
                          {
                            OFFSET 1.857 0 0
                          }
                        }
                      }
                    }
                  }
                  JOINT LeftInHandPinky
                  {
                    OFFSET 3.16105 0.469368 -1.20179
                    CHANNELS 3 Zrotation Xrotation Yrotation
                    JOINT LeftHandPinky1
                    {
                      OFFSET 4.14105 -0.022105 -1.09053
                      CHANNELS 3 Zrotation Xrotation Yrotation
                      JOINT LeftHandPinky2
                      {
                        OFFSET 2.75653 0 0
                        CHANNELS 3 Zrotation Xrotation Yrotation
                        JOINT LeftHandPinky3
                        {
                          OFFSET 1.74189 0 0
                          CHANNELS 3 Zrotation Xrotation Yrotation
                          End Site
                          {
                            OFFSET 1.645 0 0
                          }
                        }
                      }
                    }
                  }
                }
              }
            }
          }
        }
      }
    }
  }
}
MOTION
Frames: 3
Frame Time: 0.00833333
1.048064982673303348e+03 8.896893172753715362e+01 2.756606526644826971e+01 2.226193860796620783e+01 -2.683747517620338741e+01 -1.525395031811912077e+02 2.716048801616504704e+01 -4.979864570453000283e+01 4.483806443413524789e+01 -6.220698608316252987e-01 1.660416380988007745e+01 1.348780457608794947e+01 8.572976203114288651e+00 1.737738305438879749e+01 6.762711650203130809e+00 3.751536962347766035e+01 -2.955501398879014019e+01 4.979521723796459298e+01 -3.247059384836609830e+00 2.208927892675760773e+01 1.748409634057756534e+01 -1.495591800638105440e+01 -8.078711317476150455e-01 -2.384039252238069118e+00 -9.999451963187880210e+00 3.900957962348121200e+00 2.937892211708726720e+00 -2.450920000282112987e+00 1.221902160894203337e+00 5.844935740500534216e-01 -4.091799349799433827e+00 2.346116738557309844e+00 9.025835044178811550e-01 -4.505097808322537922e-01 -8.576323934855227815e-01 8.779554847243400406e-01 -2.730044637558177278e+00 -1.928594336879722926e+00 1.578030614483565408e+01 -7.424815706488913314e+00 -8.811897258836845381e+00 7.586345813214924405e+00 1.430345432153107499e+00 -4.572283427529781896e+00 7.005220247287134328e+00 4.737165780228326639e+01 1.906903858886672021e+00 2.909322379294947325e+01 8.811087065911483052e+00 -2.965600640580761294e+01 1.012953508565626137e+01 2.522954613082490027e+00 -6.744738629747228487e+00 3.425183640480761404e+00 2.818400000000000105e+01 1.072940000000000005e+01 1.915919999999999845e+01 -6.439183596823552942e-15 4.050121552589895971e-15 -1.000000000000000000e+01 -1.529069889651146218e-15 -1.334066486411316181e-15 -1.000000000000000000e+01 -6.788251647205240458e-16 3.122130212744540246e-15 3.848815492728148548e-15 1.998179999999999978e+01 8.718970000000000331e-01 2.396399999999999864e+00 2.400000000000000000e+01 -2.396786997809852130e-17 -2.924097436635367026e-15 2.000000000000000000e+01 3.047803662684629025e-15 9.918501609467495471e-15 -6.788251647205240458e-16 3.122130212744540246e-15 3.848815492728148548e-15 2.000000000000000000e+01 -2.194736461352771703e-16 -1.810936717843937436e-15 2.400000000000000000e+01 1.795290921178852302e-15 4.165525160390340750e-15 2.000000000000000000e+01 3.039126157536950683e-15 7.174269958506680517e-15 -6.788251647205240458e-16 3.122130212744540246e-15 3.848815492728148548e-15 1.997479999999999833e+01 -1.025649999999999951e+00 -2.819380000000000219e+00 2.400000000000000000e+01 6.384204704371065877e-16 -5.472694297560723953e-16 2.000000000000000000e+01 -2.677640606413576175e-16 2.836614465903598892e-15 -6.788251647205240458e-16 3.122130212744540246e-15 3.848815492728148548e-15 1.978150000000000119e+01 -3.009479999999999933e+00 -8.305149999999999366e+00 2.400000000000000000e+01 -5.091419685122141963e-15 -3.424044520520963244e-15 2.000000000000000000e+01 -1.200506778861675927e-15 4.911232674942820448e-15 -8.721071746612953035e+00 -1.856343443660396275e+01 -1.937236841389866271e+01 1.832247819025499069e+01 2.539490699484595027e+01 -1.190817844219540831e+02 1.614064261488450995e+02 -2.883871744386627256e+01 1.143720996521917925e+02 -1.251791159709610923e+01 -2.384839768944449645e+01 -2.426192783741742431e+01 -2.818400000000000105e+01 1.072940000000000005e+01 -1.915919999999999845e+01 3.256133001452593257e-15 -6.270916086307613924e-15 1.000000000000000000e+01 -3.990402935421221531e-15 -4.565031248263889632e-15 1.000000000000000000e+01 1.570720449268513273e-15 -1.564936787950538905e-15 -1.517964108216089639e-15 -1.998179999999999978e+01 8.718970000000000331e-01 -2.396399999999999864e+00 -2.400000000000000000e+01 1.211097992461385519e-15 5.492172106969964632e-16 -2.000000000000000000e+01 -1.831125449308857531e-15 3.053056646168491309e-15 1.570720449268513273e-15 -1.564936787950538905e-15 -1.517964108216089639e-15 -2.000000000000000000e+01 -3.246527892621677363e-15 -3.016039191749524420e-15 -2.400000000000000000e+01 -3.413024267273761803e-15 -5.409142543571233773e-15 -2.000000000000000000e+01 -1.925656046931806503e-15 4.167214927929327712e-16 1.570720449268513273e-15 -1.564936787950538905e-15 -1.517964108216089639e-15 -1.997479999999999833e+01 -1.025649999999999951e+00 2.819380000000000219e+00 -2.400000000000000000e+01 -3.473267901224335906e-15 6.178717615228469877e-15 -2.000000000000000000e+01 8.975919447314892035e-16 6.847329052078901070e-15 1.570720449268513273e-15 -1.564936787950538905e-15 -1.517964108216089639e-15 -1.978150000000000119e+01 -3.009479999999999933e+00 8.305149999999999366e+00 -2.400000000000000000e+01 4.081077697405804154e-15 -2.568456734289107075e-15 -2.000000000000000000e+01 -3.950358680026022946e-15 -4.895118376821640807e-15
1.048060356995384154e+03 8.896806750815012776e+01 2.756010087255310381e+01 2.225035727192311086e+01 -2.683561410472323061e+01 -1.525814629900384887e+02 2.719105501867172592e+01 -4.978585149822404787e+01 4.486860638099243204e+01 -6.311867572675131655e-01 1.661060207816382217e+01 1.349966545456718237e+01 8.572611442587550812e+00 1.737782277844786805e+01 6.773828360396445980e+00 3.751753681294977127e+01 -2.953466226718476761e+01 4.979727634466811992e+01 -3.247058620669488249e+00 2.210719214527228615e+01 1.749205739300038331e+01 -1.496316375085786632e+01 -8.238916878575022196e-01 -2.373108054241706899e+00 -9.998239514202769129e+00 3.892697285918826466e+00 2.914771494185444567e+00 -2.450929152616045936e+00 1.219002242228371280e+00 5.788997307515786339e-01 -4.091765056692768354e+00 2.341185333955482228e+00 8.935589298960442406e-01 -4.514910151327188315e-01 -8.574883859078614723e-01 8.807304366655692718e-01 -2.732587621767716968e+00 -1.929722513555361507e+00 1.580171978739018357e+01 -7.442815463997932923e+00 -8.802613926778365183e+00 7.628079858307803107e+00 1.431771720074841436e+00 -4.573822386742672386e+00 6.988422892204398273e+00 4.740494855517344774e+01 1.923026572530975198e+00 2.899661151407859450e+01 8.845776252763524639e+00 -2.964216269759460332e+01 1.005773638910336842e+01 2.495883748671186453e+00 -6.732935737834630174e+00 3.431874346313590785e+00 2.818400000000000105e+01 1.072940000000000005e+01 1.915919999999999845e+01 -6.427402520735344400e-15 4.047812300110665527e-15 -1.000000000000000000e+01 -1.530292535589142821e-15 -1.331237540255344574e-15 -1.000000000000000000e+01 -6.853335085685043998e-16 3.120280118433355245e-15 3.852490370306269274e-15 1.998179999999999978e+01 8.718970000000000331e-01 2.396399999999999864e+00 2.400000000000000000e+01 -2.815866289906490418e-17 -2.912352206275749484e-15 2.000000000000000000e+01 3.048217157896155473e-15 9.920573719019483285e-15 -6.853335085685043998e-16 3.120280118433355245e-15 3.852490370306269274e-15 2.000000000000000000e+01 -2.219060082149748318e-16 -1.799502462244327128e-15 2.400000000000000000e+01 1.799027298678477789e-15 4.160844255468845284e-15 2.000000000000000000e+01 3.041831271980074927e-15 7.179441764944084989e-15 -6.853335085685043998e-16 3.120280118433355245e-15 3.852490370306269274e-15 1.997479999999999833e+01 -1.025649999999999951e+00 -2.819380000000000219e+00 2.400000000000000000e+01 6.390728484045278615e-16 -5.458602360541655919e-16 2.000000000000000000e+01 -2.675494132476499104e-16 2.851394823447195044e-15 -6.853335085685043998e-16 3.120280118433355245e-15 3.852490370306269274e-15 1.978150000000000119e+01 -3.009479999999999933e+00 -8.305149999999999366e+00 2.400000000000000000e+01 -5.092502641135040815e-15 -3.432084227296878549e-15 2.000000000000000000e+01 -1.196590130590398648e-15 4.935578857530992208e-15 -8.710871629381916392e+00 -1.856839866895396440e+01 -1.937364310945453738e+01 1.834509451962581394e+01 2.539232551490468381e+01 -1.191275659570770529e+02 1.613123593916084246e+02 -2.878577840660589260e+01 1.142539173835563417e+02 -1.254822559363835310e+01 -2.389355792665706701e+01 -2.429610261570569918e+01 -2.818400000000000105e+01 1.072940000000000005e+01 -1.915919999999999845e+01 3.246712706379767976e-15 -6.260915936459251392e-15 1.000000000000000000e+01 -3.980740790316849857e-15 -4.553697285817276775e-15 1.000000000000000000e+01 1.570531508948742093e-15 -1.563321698615302217e-15 -1.513627333823818440e-15 -1.998179999999999978e+01 8.718970000000000331e-01 -2.396399999999999864e+00 -2.400000000000000000e+01 1.215684580359935960e-15 5.435836572174642226e-16 -2.000000000000000000e+01 -1.829279388614507546e-15 3.047063123946188411e-15 1.570531508948742093e-15 -1.563321698615302217e-15 -1.513627333823818440e-15 -2.000000000000000000e+01 -3.245101347783717739e-15 -3.016878341099429655e-15 -2.400000000000000000e+01 -3.407433309423983655e-15 -5.408379711826025827e-15 -2.000000000000000000e+01 -1.924861708288486563e-15 4.115966218704503823e-16 1.570531508948742093e-15 -1.563321698615302217e-15 -1.513627333823818440e-15 -1.997479999999999833e+01 -1.025649999999999951e+00 2.819380000000000219e+00 -2.400000000000000000e+01 -3.466949107336499332e-15 6.166726920246078538e-15 -2.000000000000000000e+01 9.000703408964504768e-16 6.832930607372845749e-15 1.570531508948742093e-15 -1.563321698615302217e-15 -1.513627333823818440e-15 -1.978150000000000119e+01 -3.009479999999999933e+00 8.305149999999999366e+00 -2.400000000000000000e+01 4.082378494454099733e-15 -2.568325633197435932e-15 -2.000000000000000000e+01 -3.941760145741143057e-15 -4.895044620504910340e-15
1.048055966501618968e+03 8.896705434491231301e+01 2.755301032165024822e+01 2.223846085174793075e+01 -2.683367519094241871e+01 -1.526296171402944992e+02 2.722356844521245023e+01 -4.977496140414804415e+01 4.490050398122393460e+01 -6.409317007275654454e-01 1.661874300535648885e+01 1.351270508766298306e+01 8.572274264540270750e+00 1.737461830758818593e+01 6.786247400266442575e+00 3.752135688565979166e+01 -2.951444316539398827e+01 4.980064103270689202e+01 -3.246560851291217631e+00 2.212768748389466467e+01 1.750083087538569160e+01 -1.497133670138860850e+01 -8.417773410274396184e-01 -2.359899290660610660e+00 -9.996852976831625881e+00 3.884865074910919702e+00 2.889329400121157576e+00 -2.450894002324196297e+00 1.216117819193352823e+00 5.727292293949730606e-01 -4.091652500799846770e+00 2.336208872516225554e+00 8.836239105075840428e-01 -4.525752670809386480e-01 -8.572821179500527133e-01 8.837855804703520501e-01 -2.735353276170484627e+00 -1.930870344181446541e+00 1.582505074222712516e+01 -7.462801912751805489e+00 -8.792041930539458150e+00 7.674171146815075950e+00 1.433626906447446725e+00 -4.575285894240912477e+00 6.969191421553567523e+00 4.744514427764953268e+01 1.940874744724477186e+00 2.889292913751049952e+01 8.888368711722755222e+00 -2.962542747144858879e+01 9.976998546113925670e+00 2.465403790530418249e+00 -6.722277513306963215e+00 3.439485276647130441e+00 2.818400000000000105e+01 1.072940000000000005e+01 1.915919999999999845e+01 -6.414455124122332089e-15 4.044822500118289363e-15 -1.000000000000000000e+01 -1.531084312245951324e-15 -1.328605635443268146e-15 -1.000000000000000000e+01 -6.924184638707418656e-16 3.118186107207461781e-15 3.856107457228266135e-15 1.998179999999999978e+01 8.718970000000000331e-01 2.396399999999999864e+00 2.400000000000000000e+01 -3.255840439235402472e-17 -2.899951735628063246e-15 2.000000000000000000e+01 3.047887719807247683e-15 9.921840129816680058e-15 -6.924184638707418656e-16 3.118186107207461781e-15 3.856107457228266135e-15 2.000000000000000000e+01 -2.244387606525260004e-16 -1.787291423971182239e-15 2.400000000000000000e+01 1.802576480108259365e-15 4.155649764988342641e-15 2.000000000000000000e+01 3.044154730140694437e-15 7.184861517972940932e-15 -6.924184638707418656e-16 3.118186107207461781e-15 3.856107457228266135e-15 1.997479999999999833e+01 -1.025649999999999951e+00 -2.819380000000000219e+00 2.400000000000000000e+01 6.394687931291541771e-16 -5.440386400221152317e-16 2.000000000000000000e+01 -2.672050271521869524e-16 2.866483602103327733e-15 -6.924184638707418656e-16 3.118186107207461781e-15 3.856107457228266135e-15 1.978150000000000119e+01 -3.009479999999999933e+00 -8.305149999999999366e+00 2.400000000000000000e+01 -5.093382663888768185e-15 -3.439466272741830179e-15 2.000000000000000000e+01 -1.192026642711208414e-15 4.961497694378307675e-15 -8.699733163453707618e+00 -1.857334143224020195e+01 -1.937561947114523520e+01 1.836785953773452462e+01 2.539259801973199515e+01 -1.191760704770948962e+02 1.612030691587271463e+02 -2.873069254287741359e+01 1.141249010517461215e+02 -1.258597488189321645e+01 -2.393622819347778830e+01 -2.433079758934918857e+01 -2.818400000000000105e+01 1.072940000000000005e+01 -1.915919999999999845e+01 3.237328213305740966e-15 -6.250324981261986600e-15 1.000000000000000000e+01 -3.970258413459105607e-15 -4.541820544225931827e-15 1.000000000000000000e+01 1.570324660905942255e-15 -1.561578034465682405e-15 -1.509165848337362820e-15 -1.998179999999999978e+01 8.718970000000000331e-01 -2.396399999999999864e+00 -2.400000000000000000e+01 1.219739201095060147e-15 5.371843865068959885e-16 -2.000000000000000000e+01 -1.826913752155645702e-15 3.041046617490015980e-15 1.570324660905942255e-15 -1.561578034465682405e-15 -1.509165848337362820e-15 -2.000000000000000000e+01 -3.243100030276530237e-15 -3.017559905875501584e-15 -2.400000000000000000e+01 -3.401061376972852612e-15 -5.406468228772848758e-15 -2.000000000000000000e+01 -1.924011220126921070e-15 4.057468807802596648e-16 1.570324660905942255e-15 -1.561578034465682405e-15 -1.509165848337362820e-15 -1.997479999999999833e+01 -1.025649999999999951e+00 2.819380000000000219e+00 -2.400000000000000000e+01 -3.459920829094773702e-15 6.153743962610016276e-15 -2.000000000000000000e+01 9.026176898263802777e-16 6.817472364227250287e-15 1.570324660905942255e-15 -1.561578034465682405e-15 -1.509165848337362820e-15 -1.978150000000000119e+01 -3.009479999999999933e+00 8.305149999999999366e+00 -2.400000000000000000e+01 4.083249676481843159e-15 -2.568067952467406151e-15 -2.000000000000000000e+01 -3.932436409734874414e-15 -4.893746062891150184e-15
